<svg width="2048" height="2048" viewBox="0 0 2048 2048" fill="none" xmlns="http://www.w3.org/2000/svg">
<path d="M1227.73 700.138L1566.85 1126.22L718.164 1954.04L225.301 1351.95L1227.73 700.138Z" fill="#D58A9F"/>
<path fill-rule="evenodd" clip-rule="evenodd" d="M716.925 1976.14L203.149 1348.51L1230.97 680.185L1586.98 1127.49L716.925 1976.14ZM1546.72 1124.96L1224.49 720.09L247.451 1355.4L719.4 1931.93L1546.72 1124.96Z" fill="white"/>
<path d="M541.182 1555.85L596.312 1014.08L1781.87 1014.92L1713.74 1790.01L541.182 1555.85Z" fill="#950C2A"/>
<path fill-rule="evenodd" clip-rule="evenodd" d="M1798.21 999.97L1727.19 1807.96L524.933 1567.86L582.808 999.11L1798.21 999.97ZM609.837 1029.05L557.452 1543.84L1700.31 1772.07L1765.55 1029.87L609.837 1029.05Z" fill="white"/>
<path fill-rule="evenodd" clip-rule="evenodd" d="M1257.92 1350.75L569.741 1201.14L576.098 1171.9L1264.28 1321.51L1257.92 1350.75Z" fill="white"/>
<path d="M664.781 777.89L1029.75 373.723L1985.07 1075.8L1471.58 1660.39L664.781 777.89Z" fill="#F0932C"/>
<path fill-rule="evenodd" clip-rule="evenodd" d="M2007.08 1073.41L1471.8 1682.8L644.565 777.951L1027.71 353.658L2007.08 1073.41ZM1031.79 393.787L684.992 777.827L1471.35 1637.97L1963.06 1078.19L1031.79 393.787Z" fill="white"/>
<path fill-rule="evenodd" clip-rule="evenodd" d="M1527.22 1201.14L1078.41 812.171L1098 789.56L1546.81 1178.53L1527.22 1201.14Z" fill="white"/>
<path d="M390.217 1335.78L61.0884 901.933L928.792 94.0708L1407.52 707.447L390.217 1335.78Z" fill="#300729"/>
<path fill-rule="evenodd" clip-rule="evenodd" d="M930.548 72L1429.59 711.403L386.519 1355.66L41 900.2L930.548 72ZM81.1862 903.666L393.925 1315.91L1385.46 703.492L927.045 116.142L81.1862 903.666Z" fill="white"/>
<path fill-rule="evenodd" clip-rule="evenodd" d="M928.798 662.566L229.522 1099.2L211.044 1074.84L912.94 637.194L928.798 662.566Z" fill="white"/>
</svg>
